<svg width="112" height="22" viewBox="0 0 112 22" fill="none" xmlns="http://www.w3.org/2000/svg">
<path d="M16.5072 18.8432C16.5072 20.0083 16.6497 20.7613 16.9348 21.0881V21.2444H13.086C12.8009 20.9602 12.6584 20.3919 12.6584 19.5252V19.0564C11.2471 20.8465 9.02336 21.7559 5.98706 21.7559C4.29073 21.7559 2.86524 21.3438 1.71059 20.534C0.570196 19.7241 0 18.5449 0 16.982C0 15.4902 0.413392 14.3678 1.25443 13.6432C2.09547 12.9186 3.1931 12.4781 4.56157 12.3361L10.5771 11.7109C11.2329 11.6399 11.7033 11.4978 11.9884 11.2847C12.2877 11.0716 12.4303 10.7448 12.4303 10.3043C12.4303 9.22453 11.2471 8.69884 8.86655 8.69884C7.74042 8.69884 6.8281 8.86934 6.14387 9.22453C5.45963 9.57973 5.089 10.0912 5.03198 10.7874H0.898059C0.940824 9.90651 1.1689 9.12508 1.59655 8.47152C2.0242 7.81796 2.60865 7.29227 3.36416 6.92286C4.11967 6.55346 4.94645 6.28351 5.85877 6.09881C6.77108 5.92831 7.76893 5.82886 8.86655 5.82886C10.0355 5.82886 11.0618 5.8999 11.9599 6.05618C12.8579 6.19826 13.6562 6.43979 14.3689 6.78078C15.0817 7.10756 15.6091 7.57642 15.9655 8.17315C16.3219 8.76988 16.5072 9.48027 16.5072 10.3043V18.8432ZM12.5871 14.6803V13.8421C12.3448 13.9984 11.9029 14.1262 11.2899 14.2115L6.3862 14.8793C5.64494 14.9645 5.07475 15.1776 4.67561 15.4902C4.27647 15.8028 4.0769 16.2858 4.0769 16.9394C4.0769 18.3318 5.06049 19.0137 7.01342 19.0137C7.62638 19.0137 8.23934 18.9427 8.8523 18.7864C9.46526 18.6443 10.0497 18.417 10.6342 18.1044C11.2186 17.8061 11.689 17.3514 12.0454 16.7547C12.4018 16.1438 12.5871 15.4618 12.5871 14.6803Z" fill="white"/>
<path d="M25.9439 18.2323C26.8134 18.2323 27.5689 18.1612 28.2247 18.0333V21.2585C27.4121 21.4148 26.4571 21.5001 25.3879 21.5001C23.435 21.5001 22.0808 21.1875 21.311 20.5623C20.5413 19.9372 20.1564 18.8432 20.1564 17.2945V8.99716H17.5192V6.34029H20.1564V2.20581H24.105V6.34029H28.2674V9.01137H24.105V16.6552C24.105 17.2235 24.2475 17.6355 24.5469 17.8771C24.8462 18.1044 25.3024 18.2323 25.9439 18.2323Z" fill="white"/>
<path d="M30.9901 7.93162C32.5724 6.53925 34.8104 5.82886 37.6899 5.82886C40.5694 5.82886 42.8074 6.52504 44.3897 7.93162C45.972 9.32399 46.7703 11.2847 46.7703 13.7995C46.7703 16.3142 45.972 18.2607 44.3897 19.6531C42.8074 21.0455 40.5694 21.7416 37.6899 21.7416C34.8104 21.7416 32.5724 21.0455 30.9901 19.6531C29.4078 18.2607 28.6096 16.3 28.6096 13.7995C28.6238 11.2847 29.4078 9.32399 30.9901 7.93162ZM33.9979 17.394C34.8817 18.2181 36.1076 18.6443 37.6899 18.6443C39.2722 18.6443 40.5124 18.2323 41.382 17.394C42.2515 16.57 42.6791 15.3623 42.6791 13.7853C42.6791 12.2082 42.2515 11.0005 41.382 10.1765C40.5124 9.3524 39.2865 8.92617 37.6899 8.92617C36.1076 8.92617 34.8675 9.3382 33.9979 10.1765C33.1141 11.0005 32.6865 12.2082 32.6865 13.7853C32.6865 15.3481 33.1141 16.5558 33.9979 17.394Z" fill="white"/>
<path d="M52.3867 6.3404V8.28687H52.5008C53.6982 6.73822 55.6084 5.95679 58.2028 5.95679C60.8969 5.95679 62.7073 6.75243 63.6481 8.3437C64.9596 6.75243 67.0408 5.95679 69.906 5.95679C71.7021 5.95679 73.1704 6.39723 74.2965 7.27812C75.4227 8.159 75.9929 9.49454 75.9929 11.2705V21.2444H72.087V12.3503C72.087 10.2049 70.8754 9.12514 68.4378 9.12514C67.9389 9.12514 67.4542 9.19618 66.9838 9.35246C66.5134 9.49454 66.0715 9.72187 65.6581 10.0202C65.2447 10.3186 64.9026 10.7306 64.646 11.2705C64.3894 11.8104 64.2468 12.4214 64.2468 13.1317V21.2444H60.3267V12.3503C60.3267 10.2049 59.1151 9.12514 56.6917 9.12514C56.1928 9.12514 55.7081 9.19618 55.2377 9.35246C54.7673 9.49454 54.3112 9.72187 53.8978 10.0202C53.4844 10.3186 53.1423 10.7306 52.8857 11.2705C52.6291 11.8104 52.5008 12.4214 52.5008 13.1317V21.2444H48.5807V6.32619H52.3867V6.3404Z" fill="white"/>
<path d="M86.5123 4.68869C85.6284 4.68869 84.9442 4.81656 84.4881 5.0723C84.0176 5.32804 83.7896 5.83952 83.7896 6.63516V7.28872H87.7382V9.80351H83.7896V21.3403H80.0975V9.7893H77.6172V7.27452H80.0975V6.27997C80.0975 4.66027 80.5822 3.52365 81.5373 2.85588C82.5066 2.18811 83.9464 1.86133 85.8565 1.86133C86.498 1.86133 87.2392 1.91816 88.0518 2.04603V4.78814C87.3961 4.73131 86.8829 4.68869 86.5123 4.68869Z" fill="#396AF7"/>
<path d="M112 0H107.296L98.244 10.8548L94.3952 5.66893H89.406L95.6496 13.3838L88.907 21.326H93.9248L98.244 15.9696L102.492 21.326H107.538L100.81 13.3838L112 0Z" fill="#396AF7"/>
</svg>
